<svg xmlns="http://www.w3.org/2000/svg" version="1.1" xmlns:xlink="http://www.w3.org/1999/xlink" xmlns:svgjs="http://svgjs.dev/svgjs" width="1000" height="1000" viewBox="0 0 1000 1000"><rect width="1000" height="1000" fill="#ffffff"></rect><g transform="matrix(0.7,0,0,0.7,149.90044910179654,149.90044910179637)"><svg viewBox="0 0 334 334" data-background-color="#ffffff" preserveAspectRatio="xMidYMid meet" height="1000" width="1000" xmlns="http://www.w3.org/2000/svg" xmlns:xlink="http://www.w3.org/1999/xlink"><g id="tight-bounds" transform="matrix(1,0,0,1,0.04749999999998522,0.04750000000001364)"><svg viewBox="0 0 333.90454557049503 333.90454557049503" height="333.90454557049503" width="333.90454557049503"><g><svg></svg></g><g><svg viewBox="0 0 333.90454557049503 333.90454557049503" height="333.90454557049503" width="333.90454557049503"><g><path d="M0 166.952c0-92.205 74.747-166.952 166.952-166.952 92.205 0 166.952 74.747 166.953 166.952 0 92.205-74.747 166.952-166.953 166.953-92.205 0-166.952-74.747-166.952-166.953zM166.952 316.63c82.665 0 149.677-67.013 149.678-149.678 0-82.665-67.013-149.677-149.678-149.677-82.665 0-149.677 67.013-149.677 149.677 0 82.665 67.013 149.677 149.677 149.678z" data-fill-palette-color="tertiary" fill="#ff0000" stroke="transparent"></path><ellipse rx="160.27418187383762" ry="160.27418187383762" cx="166.95227278524752" cy="166.95227278524752" fill="#ff0000" stroke="transparent" stroke-width="0" fill-opacity="1" data-fill-palette-color="tertiary"></ellipse></g><g transform="matrix(1,0,0,1,90.71043439847722,71.17305217166896)"><svg viewBox="0 0 152.4836767735406 191.55844122715712" height="191.55844122715712" width="152.4836767735406"><g><svg viewBox="0 0 152.4836767735406 191.55844122715712" height="191.55844122715712" width="152.4836767735406"><g><svg viewBox="0 0 152.4836767735406 191.55844122715712" height="191.55844122715712" width="152.4836767735406"><g><svg viewBox="0 0 152.4836767735406 191.55844122715712" height="191.55844122715712" width="152.4836767735406"><g id="textblocktransform"><svg viewBox="0 0 152.4836767735406 191.55844122715712" height="191.55844122715712" width="152.4836767735406" id="textblock"><g><svg viewBox="0 0 152.4836767735406 191.55844122715712" height="191.55844122715712" width="152.4836767735406"><g transform="matrix(1,0,0,1,0,0)"><svg width="152.4836767735406" viewBox="3.559999942779541 -35.54999923706055 28.30000114440918 35.54999923706055" height="191.55844122715712" data-palette-color="#ffffff"><path d="M27-20.8L27-15.72 8.3-15.72 8.3-20.8 27-20.8ZM9.86-35.55L9.86 0 3.56 0 3.56-35.55 9.86-35.55ZM31.86-35.55L31.86 0 25.59 0 25.59-35.55 31.86-35.55Z" opacity="1" transform="matrix(1,0,0,1,0,0)" fill="#ffffff" class="wordmark-text-0" data-fill-palette-color="quaternary" id="text-0"></path></svg></g></svg></g></svg></g></svg></g></svg></g></svg></g></svg></g></svg></g><defs></defs></svg><rect width="333.90454557049503" height="333.90454557049503" fill="none" stroke="none" visibility="hidden"></rect></g></svg></g></svg>